<svg width="38" height="40" viewBox="0 0 38 40" fill="none" xmlns="http://www.w3.org/2000/svg">
<g id="cart">
<path id="Vector" d="M12.9741 33.773C13.6308 33.773 14.1633 33.2083 14.1633 32.5117C14.1633 31.8152 13.6308 31.2505 12.9741 31.2505C12.3173 31.2505 11.7849 31.8152 11.7849 32.5117C11.7849 33.2083 12.3173 33.773 12.9741 33.773Z" stroke="#FDFDFD" stroke-width="1.00189" stroke-linecap="round" stroke-linejoin="round"/>
<path id="Vector_2" d="M29.474 33.773C30.1307 33.773 30.6631 33.2083 30.6631 32.5117C30.6631 31.8152 30.1307 31.2505 29.474 31.2505C28.8172 31.2505 28.2848 31.8152 28.2848 32.5117C28.2848 33.2083 28.8172 33.773 29.474 33.773Z" stroke="#FDFDFD" stroke-width="1.00189" stroke-linecap="round" stroke-linejoin="round"/>
<path id="Vector_3" d="M3.53467 6.24951H8.24895L11.7847 27.4995H30.6418" stroke="#FDFDFD" stroke-width="1.00189" stroke-linecap="round" stroke-linejoin="round"/>
<path id="Vector_4" d="M11.7873 22.5012H30.1613C30.2975 22.5013 30.4296 22.4513 30.5351 22.3597C30.6405 22.2681 30.7127 22.1406 30.7395 21.9989L32.8609 10.7489C32.878 10.6582 32.876 10.5645 32.8548 10.4748C32.8337 10.385 32.794 10.3014 32.7387 10.2298C32.6834 10.1583 32.6138 10.1007 32.5349 10.0612C32.4561 10.0216 32.3699 10.0012 32.2827 10.0012H9.43018" stroke="#FDFDFD" stroke-width="1.00189" stroke-linecap="round" stroke-linejoin="round"/>
</g>
</svg>
