<svg width="30" height="30" viewBox="0 0 30 30" fill="none" xmlns="http://www.w3.org/2000/svg">
<g id="logo/instagram">
<path id="Vector" d="M20.4691 4.06371C21.9183 4.06804 23.3069 4.64564 24.3316 5.67036C25.3563 6.69509 25.9339 8.08367 25.9383 9.53285V20.47C25.9339 21.9191 25.3563 23.3077 24.3316 24.3324C23.3069 25.3572 21.9183 25.9348 20.4691 25.9391H9.53202C8.08285 25.9348 6.69427 25.3572 5.66954 24.3324C4.64481 23.3077 4.06721 21.9191 4.06288 20.47V9.53285C4.06721 8.08367 4.64481 6.69509 5.66954 5.67036C6.69427 4.64564 8.08285 4.06804 9.53202 4.06371H20.4691ZM20.4691 1.8764H9.53202C5.32089 1.8764 1.87558 5.32172 1.87558 9.53285V20.47C1.87558 24.6811 5.32089 28.1264 9.53202 28.1264H20.4691C24.6803 28.1264 28.1256 24.6811 28.1256 20.47V9.53285C28.1256 5.32172 24.6803 1.8764 20.4691 1.8764Z" fill="white"/>
<path id="Vector_2" d="M22.114 9.54217C21.7886 9.54217 21.4705 9.44568 21.1999 9.26489C20.9293 9.0841 20.7184 8.82713 20.5939 8.52649C20.4694 8.22585 20.4368 7.89503 20.5003 7.57586C20.5638 7.2567 20.7205 6.96353 20.9506 6.73343C21.1807 6.50333 21.4738 6.34663 21.793 6.28314C22.1122 6.21966 22.443 6.25224 22.7436 6.37677C23.0443 6.5013 23.3012 6.71219 23.482 6.98276C23.6628 7.25333 23.7593 7.57144 23.7593 7.89685C23.7598 8.11305 23.7175 8.32721 23.635 8.52704C23.5525 8.72687 23.4313 8.90843 23.2784 9.06131C23.1256 9.21418 22.944 9.33536 22.7442 9.41788C22.5443 9.5004 22.3302 9.54264 22.114 9.54217Z" fill="white"/>
<path id="Vector_3" d="M15.0003 10.6242C15.8657 10.6242 16.7116 10.8808 17.4311 11.3615C18.1506 11.8423 18.7113 12.5256 19.0425 13.3251C19.3736 14.1245 19.4603 15.0042 19.2915 15.8529C19.1226 16.7017 18.7059 17.4812 18.0941 18.0931C17.4822 18.705 16.7026 19.1217 15.8539 19.2905C15.0052 19.4593 14.1255 19.3727 13.326 19.0415C12.5266 18.7104 11.8432 18.1496 11.3625 17.4301C10.8817 16.7106 10.6251 15.8647 10.6251 14.9994C10.6264 13.8394 11.0877 12.7273 11.908 11.907C12.7282 11.0868 13.8403 10.6254 15.0003 10.6242ZM15.0003 8.43689C13.7024 8.43689 12.4336 8.82177 11.3544 9.54287C10.2752 10.264 9.43408 11.2889 8.93738 12.488C8.44068 13.6872 8.31072 15.0067 8.56394 16.2797C8.81715 17.5527 9.44217 18.722 10.36 19.6398C11.2777 20.5576 12.4471 21.1826 13.7201 21.4358C14.9931 21.689 16.3126 21.559 17.5117 21.0623C18.7108 20.5656 19.7358 19.7245 20.4569 18.6453C21.178 17.5661 21.5628 16.2973 21.5628 14.9994C21.5628 13.2589 20.8714 11.5897 19.6407 10.359C18.41 9.12829 16.7408 8.43689 15.0003 8.43689Z" fill="white"/>
</g>
</svg>
