<svg width="30" height="30" viewBox="0 0 30 30" fill="none" xmlns="http://www.w3.org/2000/svg">
<g id="logo/whatsapp">
<path id="Vector" fill-rule="evenodd" clip-rule="evenodd" d="M24.2989 5.68854C23.0855 4.47451 21.6439 3.51249 20.0572 2.85784C18.4704 2.2032 16.7699 1.86886 15.0534 1.87408C7.84991 1.87408 1.98585 7.70885 1.98292 14.8819C1.97974 17.166 2.58181 19.4101 3.72784 21.3858L1.87335 28.1241L8.80206 26.3153C10.72 27.3543 12.8669 27.8981 15.0482 27.8973H15.0534C22.2564 27.8973 28.1198 22.062 28.1233 14.8895C28.1277 13.1789 27.7918 11.4845 27.1353 9.90491C26.4787 8.32531 25.5146 6.89205 24.2989 5.68854ZM15.0534 25.7018H15.0487C13.1042 25.7024 11.1951 25.182 9.51984 24.1948L9.12316 23.9604L5.01163 25.0339L6.10909 21.0442L5.8507 20.634C4.76342 18.9127 4.18736 16.9179 4.18956 14.8819C4.18956 8.92115 9.06515 4.07135 15.0575 4.07135C17.9321 4.06622 20.6911 5.20311 22.7275 7.23197C24.7639 9.26083 25.9111 12.0155 25.9167 14.8901C25.9144 20.8514 21.0411 25.7018 15.0534 25.7018ZM21.0118 17.6048C20.6855 17.4419 19.0782 16.6555 18.7806 16.5471C18.4829 16.4387 18.2632 16.3842 18.0458 16.71C17.8284 17.0358 17.2021 17.7647 17.0116 17.9844C16.8212 18.2042 16.6308 18.2282 16.3044 18.0653C15.978 17.9024 14.9251 17.5596 13.6776 16.4522C12.7067 15.5903 12.0517 14.5262 11.8612 14.201C11.6708 13.8758 11.8407 13.6995 12.0042 13.5378C12.1513 13.3919 12.3306 13.1581 12.4941 12.9682C12.6575 12.7784 12.712 12.6424 12.8204 12.4256C12.9288 12.2089 12.8749 12.019 12.7935 11.8567C12.712 11.6944 12.0587 10.0942 11.7868 9.44322C11.5214 8.80924 11.2525 8.89537 11.0521 8.88541C10.8616 8.87604 10.6419 8.87369 10.4257 8.87369C10.2604 8.878 10.0978 8.91633 9.94797 8.98629C9.79816 9.05626 9.66439 9.15635 9.55499 9.28033C9.25558 9.60612 8.41183 10.3936 8.41183 11.9921C8.41183 13.5905 9.5837 15.1374 9.74542 15.3542C9.90714 15.571 12.0482 18.854 15.3241 20.262C15.9324 20.5225 16.554 20.7509 17.1862 20.9464C17.9685 21.1936 18.6804 21.159 19.2429 21.0753C19.8704 20.9821 21.1765 20.2889 21.4478 19.5296C21.7191 18.7702 21.7196 18.1198 21.6382 17.9844C21.5567 17.8491 21.3388 17.7671 21.0118 17.6048Z" fill="white"/>
</g>
</svg>
