<svg width="25" height="25" viewBox="0 0 25 25" fill="none" xmlns="http://www.w3.org/2000/svg">
<g id="trash">
<path id="Vector" d="M5.46899 5.47096L6.44555 21.096C6.49194 21.9988 7.14867 22.6585 8.00805 22.6585H16.9924C17.8552 22.6585 18.4997 21.9988 18.5549 21.096L19.5315 5.47096" stroke="black" stroke-width="1.00189" stroke-linecap="round" stroke-linejoin="round"/>
<path id="Vector_2" d="M3.90693 5.47134H21.0944" stroke="black" stroke-width="1.00189" stroke-miterlimit="10" stroke-linecap="round"/>
<path id="Vector_3" d="M9.37508 5.46926V3.51586C9.37463 3.36182 9.40464 3.20921 9.46338 3.0668C9.52212 2.9244 9.60843 2.79502 9.71736 2.68609C9.82628 2.57717 9.95566 2.49085 10.0981 2.43211C10.2405 2.37337 10.3931 2.34336 10.5471 2.34382H14.4539C14.608 2.34336 14.7606 2.37337 14.903 2.43211C15.0454 2.49085 15.1748 2.57717 15.2837 2.68609C15.3926 2.79502 15.4789 2.9244 15.5377 3.0668C15.5964 3.20921 15.6264 3.36182 15.626 3.51586V5.46926" stroke="black" stroke-width="1.00189" stroke-linecap="round" stroke-linejoin="round"/>
<path id="Vector_4" d="M12.5007 8.59355V19.5311" stroke="black" stroke-width="1.00189" stroke-linecap="round" stroke-linejoin="round"/>
<path id="Vector_5" d="M8.98447 8.59355L9.37509 19.5311" stroke="black" stroke-width="1.00189" stroke-linecap="round" stroke-linejoin="round"/>
<path id="Vector_6" d="M16.0158 8.59355L15.6252 19.5311" stroke="black" stroke-width="1.00189" stroke-linecap="round" stroke-linejoin="round"/>
</g>
</svg>
