<svg width="41" height="41" viewBox="0 0 41 41" fill="none" xmlns="http://www.w3.org/2000/svg">
<g id="search-circle">
<path id="Vector" d="M20.5005 6.40869C17.713 6.40869 14.9881 7.23528 12.6704 8.78392C10.3527 10.3326 8.54629 12.5337 7.47957 15.109C6.41284 17.6843 6.13374 20.5181 6.67755 23.252C7.22136 25.9859 8.56366 28.4972 10.5347 30.4682C12.5058 32.4393 15.017 33.7816 17.7509 34.3254C20.4849 34.8692 23.3187 34.5901 25.8939 33.5234C28.4692 32.4567 30.6704 30.6502 32.219 28.3325C33.7677 26.0148 34.5943 23.2899 34.5943 20.5024C34.5943 16.7645 33.1094 13.1797 30.4663 10.5367C27.8232 7.89357 24.2384 6.40869 20.5005 6.40869Z" stroke="#A84F6A" stroke-width="1.00189" stroke-miterlimit="10"/>
<path id="Vector_2" d="M18.5817 12.8147C17.4412 12.8147 16.3263 13.1529 15.378 13.7865C14.4297 14.4201 13.6906 15.3207 13.2542 16.3744C12.8177 17.4281 12.7036 18.5875 12.926 19.7061C13.1485 20.8247 13.6978 21.8522 14.5042 22.6586C15.3107 23.4651 16.3381 24.0143 17.4567 24.2368C18.5753 24.4593 19.7347 24.3451 20.7884 23.9086C21.8421 23.4722 22.7427 22.7331 23.3763 21.7848C24.0099 20.8365 24.3481 19.7216 24.3481 18.5811C24.3481 17.8239 24.199 17.074 23.9092 16.3744C23.6194 15.6748 23.1947 15.0391 22.6592 14.5037C22.1237 13.9682 21.488 13.5434 20.7884 13.2536C20.0888 12.9639 19.339 12.8147 18.5817 12.8147V12.8147Z" stroke="#A84F6A" stroke-width="1.00189" stroke-miterlimit="10"/>
<path id="Vector_3" d="M22.713 22.7158L26.9179 26.9207" stroke="#A84F6A" stroke-width="1.00189" stroke-miterlimit="10" stroke-linecap="round"/>
</g>
</svg>